<svg id="Layer_1" data-name="Layer 1" xmlns="http://www.w3.org/2000/svg" viewBox="0 0 156.649 158.904"><defs><style>.cls-1{fill:#9b9b9b;}</style></defs><path class="cls-1" d="M33.336,134.039H123.11v16.722H33.336ZM78.252,88.867a11.158,11.158,0,0,0,0-22.315,12.725,12.725,0,0,0-3.2.542L51.685,49.83l-1.341,1.341L67.608,74.542a13.621,13.621,0,0,0-.542,3.2A11.266,11.266,0,0,0,78.252,88.867Z"/><path class="cls-1" d="M78.252,4.658A73.058,73.058,0,0,0,20.61,122.6H41.326l1.342-1.341,7.7-7.7-7.961-7.961-7.7,7.7A58.169,58.169,0,0,1,22.179,83.559h10.9V72.4H22.464a53.987,53.987,0,0,1,12.5-29.763l7.7,7.7,7.961-7.962-7.7-7.7a58.464,58.464,0,0,1,29.763-12.5v10.9H83.816V21.922a53.987,53.987,0,0,1,29.763,12.5l-7.7,7.7,7.961,7.961,7.705-7.705a58.464,58.464,0,0,1,12.5,29.763h-10.9V83.3h10.9a53.984,53.984,0,0,1-12.5,29.763l-7.705-7.7-7.961,7.961,7.7,7.7,1.341,1.341h20.717a73.415,73.415,0,0,0,15.409-44.887C151.3,37.332,118.629,4.658,78.252,4.658Z"/></svg>