<svg id="Layer_1" data-name="Layer 1" xmlns="http://www.w3.org/2000/svg" viewBox="0 0 154.089 155.465"><defs><style>.cls-1{fill:#9b9b9b;}</style></defs><path class="cls-1" d="M76.508,150.761a73.052,73.052,0,1,1,72.98-72.991A72.967,72.967,0,0,1,76.508,150.761ZM130.428,56c-6.006-17.3-26.451-38.029-56.789-36.592A57.079,57.079,0,0,0,36.331,35.238,56.52,56.52,0,0,0,22.241,56.1C58.489,41.135,94.376,41.114,130.428,56ZM18.22,82a58.68,58.68,0,0,0,46.088,52.884,16.378,16.378,0,0,0-.011-2,70.438,70.438,0,0,0-1.172-7.527c-3.252-12.772-10.167-23.329-19.909-32.073C37.37,88.031,30.8,84.036,22.948,82.541,21.49,82.263,19.991,82.2,18.22,82ZM88.3,134.97c14.054-3.276,25.165-10.1,33.772-20.882a57.527,57.527,0,0,0,12.557-31.763,4.4,4.4,0,0,0-.831-.2c-.539,0-1.081.026-1.617.084A31.088,31.088,0,0,0,119.9,86.14c-15.715,9.044-25.7,22.5-30.295,39.963A81.283,81.283,0,0,0,88.3,134.97Zm-.937-57.238A10.911,10.911,0,1,0,76.417,88.623,10.88,10.88,0,0,0,87.363,77.732Z"/></svg>